<?xml version="1.0" encoding="utf-8"?>
<!-- Generator: Adobe Illustrator 26.5.0, SVG Export Plug-In . SVG Version: 6.00 Build 0)  -->
<svg version="1.1" id="Calque_1" xmlns="http://www.w3.org/2000/svg" xmlns:xlink="http://www.w3.org/1999/xlink" x="0px" y="0px"
	 viewBox="0 0 16 16" style="enable-background:new 0 0 16 16;" xml:space="preserve">
<style type="text/css">
	.st0{fill:#FFFFFF;}
	.st1{fill:#FF4757;}
</style>
<path class="st0" d="M3.3,0h9.4C14.5,0,16,1.5,16,3.3v9.4c0,1.8-1.5,3.3-3.3,3.3H3.3C1.5,16,0,14.5,0,12.7V3.3C0,1.5,1.5,0,3.3,0z"
	/>
<path class="st1" d="M13,1c1.1,0,2,0.9,2,2v10c0,1.1-0.9,2-2,2H3c-1.1,0-2-0.9-2-2V3c0-1.1,0.9-2,2-2H13z M3,0C1.3,0,0,1.3,0,3v10
	c0,1.7,1.3,3,3,3h10c1.7,0,3-1.3,3-3V3c0-1.7-1.3-3-3-3H3z"/>
<path class="st1" d="M5.5,4c0,0.8-0.7,1.5-1.5,1.5S2.5,4.8,2.5,4S3.2,2.5,4,2.5S5.5,3.2,5.5,4z M13.5,4c0,0.8-0.7,1.5-1.5,1.5
	S10.5,4.8,10.5,4s0.7-1.5,1.5-1.5S13.5,3.2,13.5,4z M13.5,12c0,0.8-0.7,1.5-1.5,1.5s-1.5-0.7-1.5-1.5s0.7-1.5,1.5-1.5
	S13.5,11.2,13.5,12z M5.5,12c0,0.8-0.7,1.5-1.5,1.5S2.5,12.8,2.5,12s0.7-1.5,1.5-1.5S5.5,11.2,5.5,12z M9.5,8c0,0.8-0.7,1.5-1.5,1.5
	S6.5,8.8,6.5,8S7.2,6.5,8,6.5S9.5,7.2,9.5,8z"/>
</svg>
